PathFileType	4	(X/Y/Z)	C:\Users\dbl\Desktop\20210112(1)\20210112\bx_y_5_501.trc
DataRate	CameraRate	NumFrames	NumMarkers	Units	OrigDataRate	OrigDataStartFrame	OrigNumFrames
50.00	50.00	       4	43	mm	50.00	130	       519
Frame#	Time	Top.Head			R.Acromium			L.Acromium			Sternum			R.ASIS			L.ASIS			V.Sacral			R.Thigh.Upper			R.Thigh.Front			R.Thigh.Rear			R.Knee.Lat			R.Knee.Med			R.Shank.Upper			R.Shank.Front			R.Shank.Rear			R.Ankle.Lat			R.Midfoot.Lat			R.Toe.Lat			R.Toe.Tip			R.Toe.Med			R.Ankle.Med			R.Midfoot.Sup			R.Heel			L.Thigh.Upper			L.Thigh.Front			L.Thigh.Rear			L.Knee.Lat			L.Knee.Med			L.Shank.Upper			L.Shank.Front			L.Shank.Rear			L.Ankle.Lat			L.Midfoot.Lat			L.Toe.Lat			L.Toe.Tip			L.Toe.Med			L.Ankle.Med			L.Midfoot.Sup			L.Heel			origin1 front left			origin2 front right			origin 3 back right			origin 4 back leftt			
		X1	Y1	Z1	X2	Y2	Z2	X3	Y3	Z3	X4	Y4	Z4	X5	Y5	Z5	X6	Y6	Z6	X7	Y7	Z7	X8	Y8	Z8	X9	Y9	Z9	X10	Y10	Z10	X11	Y11	Z11	X12	Y12	Z12	X13	Y13	Z13	X14	Y14	Z14	X15	Y15	Z15	X16	Y16	Z16	X17	Y17	Z17	X18	Y18	Z18	X19	Y19	Z19	X20	Y20	Z20	X21	Y21	Z21	X22	Y22	Z22	X23	Y23	Z23	X24	Y24	Z24	X25	Y25	Z25	X26	Y26	Z26	X27	Y27	Z27	X28	Y28	Z28	X29	Y29	Z29	X30	Y30	Z30	X31	Y31	Z31	X32	Y32	Z32	X33	Y33	Z33	X34	Y34	Z34	X35	Y35	Z35	X36	Y36	Z36	X37	Y37	Z37	X38	Y38	Z38	X39	Y39	Z39	X40	Y40	Z40	X41	Y41	Z41	X42	Y42	Z42	X43	Y43	Z43	

130	2.580	-165.03333	145.29779	1333.82056	-353.26678	-26.21854	1143.97083	-393.23746	291.52704	1140.73950	-452.33960	79.25371	1146.43018	-773.46582	-10.57480	999.76794	-790.79657	203.88480	999.65448	-958.09955	86.83018	1082.19299	-835.64105	-76.57294	840.93268	-765.75281	-14.82444	795.26160	-841.54907	-68.40331	688.05847	-828.57166	-37.44603	602.74146	-803.86249	71.57870	565.67035	-828.06567	-33.68663	555.56677	-767.63708	10.67645	523.56128	-852.14520	-45.11591	468.25906	-774.02966	-13.38123	200.54198	-665.78375	-70.00300	159.44875	-623.81403	-81.15035	156.91124	-563.08508	-39.26613	162.70737	-604.63837	18.48768	167.03038	-728.76752	69.44061	221.27029	-677.50873	51.73579	163.50385	-797.51556	49.86950	173.11943	-837.75317	280.31827	859.55591	-773.52155	215.85739	808.26038	-868.74353	284.25513	726.36938	-860.16211	250.47253	617.66516	-804.92700	144.02710	563.40063	-843.03589	245.67348	560.14844	-778.91840	205.40170	532.86060	-863.99683	257.25589	480.81268	-776.91089	227.13773	200.81619	-666.58838	301.22470	157.83630	-628.57086	308.69720	160.78325	-562.48895	260.48630	164.44769	-596.45544	224.68224	173.09912	-720.94763	158.37027	222.22206	-677.30927	176.88084	162.47656	-799.43536	176.34425	181.54514	-528.11182	303.96414	146.22498	-517.88910	-72.90111	142.38927	-875.91986	-78.95180	141.15825	-882.63342	296.02151	144.47020	
131	2.600	-166.42828	145.34671	1333.78601	-354.61554	-26.08815	1143.36914	-394.23694	291.51019	1140.83936	-453.01941	79.63693	1147.17017	-774.48309	-10.67770	999.68958	-791.08252	204.14236	999.66174	-959.23590	86.66833	1081.97925	-836.51862	-76.70110	840.92426	-766.60883	-14.91847	795.25330	-842.31305	-68.64266	688.00293	-829.20410	-37.55762	602.54047	-804.01556	71.31590	565.73279	-828.63123	-33.80728	555.42993	-768.08704	10.60755	523.58020	-852.46283	-45.23650	468.03680	-774.01453	-13.50338	200.55287	-665.78949	-70.01372	159.45160	-623.79706	-81.15350	156.93687	-563.09991	-39.25637	162.69496	-604.67853	18.51006	167.02525	-728.79669	69.46007	221.37703	-677.52246	51.69932	163.52255	-797.58472	49.72871	173.07462	-838.88049	280.34024	859.38538	-774.58398	215.86949	808.11230	-869.76941	284.08313	726.14844	-860.91333	250.27379	617.32330	-805.50745	143.90205	563.17847	-843.71692	245.56670	559.93042	-779.50995	205.30968	532.85992	-864.60590	257.17233	480.63858	-776.90375	227.13190	200.84447	-666.59161	301.24982	157.81953	-628.56793	308.71341	160.78743	-562.45691	260.52341	164.39580	-596.45197	224.65413	173.08087	-720.98224	158.36546	222.28699	-677.30090	176.87042	162.48723	-799.49164	176.34007	181.54611	-528.09631	303.99228	146.19415	-517.87494	-72.85793	142.38251	-875.90570	-78.98526	141.12164	-882.64117	296.02087	144.47800	
132	2.620	-167.92657	145.39996	1333.94507	-356.06042	-25.90182	1142.98853	-395.41116	291.51016	1141.10938	-453.75409	80.03631	1148.02417	-775.56537	-10.61768	999.52734	-791.34937	204.40369	999.69104	-960.40613	86.57343	1081.72083	-837.41888	-76.81906	840.93109	-767.46405	-15.04393	795.23877	-843.15015	-68.91380	688.05829	-829.78308	-37.67884	602.36932	-804.19519	71.03361	565.77020	-829.20471	-33.96779	555.36395	-768.50488	10.56428	523.58850	-852.74847	-45.29185	467.81876	-774.00946	-13.60336	200.52995	-665.78833	-70.02277	159.45459	-623.77887	-81.14441	156.96571	-563.12506	-39.24486	162.67166	-604.72565	18.52806	167.05031	-728.87207	69.50581	221.49097	-677.50653	51.67942	163.54491	-797.61542	49.61050	173.04207	-840.01282	280.33588	859.22894	-775.66553	215.83664	808.00037	-870.81580	283.98776	725.97968	-861.61151	250.11394	617.05389	-806.00757	143.77763	563.04449	-844.41150	245.51262	559.73712	-780.07495	205.22980	532.84961	-865.17230	257.11288	480.49979	-776.92059	227.09962	200.82721	-666.59930	301.24274	157.78783	-628.57172	308.72937	160.80544	-562.45337	260.56143	164.34073	-596.45990	224.59296	173.06378	-721.01202	158.33760	222.34676	-677.30206	176.87045	162.48471	-799.57391	176.32851	181.55188	-528.07275	303.98676	146.16219	-517.87012	-72.80420	142.38208	-875.91492	-78.98553	141.10204	-882.64331	296.02298	144.47728	
133	2.640	-169.51501	145.44421	1334.29041	-357.52078	-25.69162	1142.81677	-396.81284	291.56229	1141.50317	-454.54340	80.45127	1148.99121	-776.69897	-10.49277	999.33557	-791.59882	204.66797	999.74188	-961.64380	86.51740	1081.39514	-838.29028	-76.99048	840.91876	-768.28729	-15.19383	795.19427	-843.94196	-69.14127	688.07080	-830.26984	-37.77094	602.20880	-804.40314	70.73971	565.78271	-829.71228	-34.13155	555.32629	-768.90521	10.56076	523.53705	-853.02924	-45.30740	467.63986	-774.02972	-13.63353	200.44588	-665.78601	-70.02984	159.45999	-623.76752	-81.12740	156.98819	-563.15613	-39.23225	162.63725	-604.77850	18.54858	167.08775	-728.97528	69.56441	221.52220	-677.49744	51.66785	163.56885	-797.60120	49.54280	172.99854	-841.16364	280.28204	859.09534	-776.71533	215.78542	807.94397	-871.82532	283.94919	725.85925	-862.28418	250.01118	616.88843	-806.43781	143.66121	563.08026	-845.08087	245.47560	559.53363	-780.59332	205.16652	532.80884	-865.65314	257.07748	480.36264	-776.97449	227.02753	200.73244	-666.60229	301.20197	157.76585	-628.57196	308.73776	160.82281	-562.48883	260.57471	164.30322	-596.48438	224.54172	173.04550	-721.05029	158.31140	222.36212	-677.30627	176.87201	162.47836	-799.63293	176.31454	181.53911	-528.04895	303.96817	146.14241	-517.88519	-72.75106	142.38351	-875.94672	-78.94828	141.10904	-882.63623	296.02682	144.47322	
